<mxfile host="app.diagrams.net" modified="2023-12-23T11:07:29.686Z" agent="Mozilla/5.0 (Windows NT 10.0; Win64; x64) AppleWebKit/537.36 (KHTML, like Gecko) Chrome/120.0.0.0 Safari/537.36" etag="xxEkLqCi0vDKHV91myu-" version="22.1.11" type="device">
  <diagram name="Sayfa -1" id="aa6BzoZ8EBsdEjlZyi5H">
    <mxGraphModel dx="946" dy="790" grid="1" gridSize="10" guides="1" tooltips="1" connect="1" arrows="1" fold="1" page="1" pageScale="1" pageWidth="827" pageHeight="1169" math="0" shadow="0">
      <root>
        <mxCell id="0" />
        <mxCell id="1" parent="0" />
        <mxCell id="CnCUjJedlzhpa2LDVHNx-9" style="edgeStyle=orthogonalEdgeStyle;rounded=0;orthogonalLoop=1;jettySize=auto;html=1;exitX=0.5;exitY=1;exitDx=0;exitDy=0;" edge="1" parent="1" source="CnCUjJedlzhpa2LDVHNx-1" target="CnCUjJedlzhpa2LDVHNx-2">
          <mxGeometry relative="1" as="geometry" />
        </mxCell>
        <mxCell id="CnCUjJedlzhpa2LDVHNx-1" value="BaÅŸla" style="ellipse;whiteSpace=wrap;html=1;" vertex="1" parent="1">
          <mxGeometry x="354" y="10" width="120" height="50" as="geometry" />
        </mxCell>
        <mxCell id="CnCUjJedlzhpa2LDVHNx-10" style="edgeStyle=orthogonalEdgeStyle;rounded=0;orthogonalLoop=1;jettySize=auto;html=1;exitX=0.5;exitY=1;exitDx=0;exitDy=0;" edge="1" parent="1" source="CnCUjJedlzhpa2LDVHNx-2" target="CnCUjJedlzhpa2LDVHNx-3">
          <mxGeometry relative="1" as="geometry" />
        </mxCell>
        <mxCell id="CnCUjJedlzhpa2LDVHNx-2" value="let n" style="shape=parallelogram;perimeter=parallelogramPerimeter;whiteSpace=wrap;html=1;fixedSize=1;" vertex="1" parent="1">
          <mxGeometry x="354" y="80" width="120" height="60" as="geometry" />
        </mxCell>
        <mxCell id="CnCUjJedlzhpa2LDVHNx-11" style="edgeStyle=orthogonalEdgeStyle;rounded=0;orthogonalLoop=1;jettySize=auto;html=1;exitX=0.5;exitY=1;exitDx=0;exitDy=0;" edge="1" parent="1" source="CnCUjJedlzhpa2LDVHNx-3" target="CnCUjJedlzhpa2LDVHNx-4">
          <mxGeometry relative="1" as="geometry" />
        </mxCell>
        <mxCell id="CnCUjJedlzhpa2LDVHNx-3" value="toplam = 1&lt;br&gt;ilksayi = 0&lt;br&gt;fibonacci = []" style="rounded=0;whiteSpace=wrap;html=1;" vertex="1" parent="1">
          <mxGeometry x="354" y="170" width="120" height="60" as="geometry" />
        </mxCell>
        <mxCell id="CnCUjJedlzhpa2LDVHNx-12" style="edgeStyle=orthogonalEdgeStyle;rounded=0;orthogonalLoop=1;jettySize=auto;html=1;exitX=0.5;exitY=1;exitDx=0;exitDy=0;entryX=0.5;entryY=0;entryDx=0;entryDy=0;" edge="1" parent="1" source="CnCUjJedlzhpa2LDVHNx-4" target="CnCUjJedlzhpa2LDVHNx-5">
          <mxGeometry relative="1" as="geometry" />
        </mxCell>
        <mxCell id="CnCUjJedlzhpa2LDVHNx-14" style="edgeStyle=orthogonalEdgeStyle;rounded=0;orthogonalLoop=1;jettySize=auto;html=1;exitX=0;exitY=0.5;exitDx=0;exitDy=0;entryX=1;entryY=0.5;entryDx=0;entryDy=0;" edge="1" parent="1" source="CnCUjJedlzhpa2LDVHNx-4" target="CnCUjJedlzhpa2LDVHNx-13">
          <mxGeometry relative="1" as="geometry" />
        </mxCell>
        <mxCell id="CnCUjJedlzhpa2LDVHNx-4" value="i = 0; i &amp;lt; n; i++;" style="shape=hexagon;perimeter=hexagonPerimeter2;whiteSpace=wrap;html=1;fixedSize=1;" vertex="1" parent="1">
          <mxGeometry x="354" y="260" width="120" height="80" as="geometry" />
        </mxCell>
        <mxCell id="CnCUjJedlzhpa2LDVHNx-6" style="edgeStyle=orthogonalEdgeStyle;rounded=0;orthogonalLoop=1;jettySize=auto;html=1;exitX=1;exitY=0.5;exitDx=0;exitDy=0;entryX=1;entryY=0.5;entryDx=0;entryDy=0;" edge="1" parent="1" source="CnCUjJedlzhpa2LDVHNx-5" target="CnCUjJedlzhpa2LDVHNx-4">
          <mxGeometry relative="1" as="geometry" />
        </mxCell>
        <mxCell id="CnCUjJedlzhpa2LDVHNx-5" value="fibonacci[i] = toplam;&lt;br&gt;let temp = toplam&lt;br&gt;toplam += ilksayi&lt;br&gt;ilksayi = temp" style="rounded=0;whiteSpace=wrap;html=1;" vertex="1" parent="1">
          <mxGeometry x="340" y="360" width="150" height="100" as="geometry" />
        </mxCell>
        <mxCell id="CnCUjJedlzhpa2LDVHNx-7" value="Bitir" style="ellipse;whiteSpace=wrap;html=1;" vertex="1" parent="1">
          <mxGeometry x="180" y="360" width="120" height="50" as="geometry" />
        </mxCell>
        <mxCell id="CnCUjJedlzhpa2LDVHNx-15" style="edgeStyle=orthogonalEdgeStyle;rounded=0;orthogonalLoop=1;jettySize=auto;html=1;" edge="1" parent="1" source="CnCUjJedlzhpa2LDVHNx-13" target="CnCUjJedlzhpa2LDVHNx-7">
          <mxGeometry relative="1" as="geometry" />
        </mxCell>
        <mxCell id="CnCUjJedlzhpa2LDVHNx-13" value="fibonacci" style="shape=document;whiteSpace=wrap;html=1;boundedLbl=1;" vertex="1" parent="1">
          <mxGeometry x="180" y="260" width="120" height="80" as="geometry" />
        </mxCell>
      </root>
    </mxGraphModel>
  </diagram>
</mxfile>
